<?xml version="1.0" encoding="UTF-8" standalone="no"?>
<svg
   xmlns:dc="http://purl.org/dc/elements/1.1/"
   xmlns:cc="http://creativecommons.org/ns#"
   xmlns:rdf="http://www.w3.org/1999/02/22-rdf-syntax-ns#"
   xmlns:svg="http://www.w3.org/2000/svg"
   xmlns="http://www.w3.org/2000/svg"
   xmlns:sodipodi="http://sodipodi.sourceforge.net/DTD/sodipodi-0.dtd"
   xmlns:inkscape="http://www.inkscape.org/namespaces/inkscape"
   viewBox="0 0 200 60"
   preserveAspectRatio="xMidYMid meet"
   focusable="false"
   class="style-scope yt-icon"
   style="pointer-events: none; display: block; width: 100%; height: 100%;"
   width="200"
   height="60"
   version="1.1"
   id="svg35"
   sodipodi:docname="log.svg"
   inkscape:version="1.0.1 (3bc2e813f5, 2020-09-07)">
  <metadata
     id="metadata41">
    <rdf:RDF>
      <cc:Work
         rdf:about="">
        <dc:format>image/svg+xml</dc:format>
        <dc:type
           rdf:resource="http://purl.org/dc/dcmitype/StillImage" />
        <dc:title />
      </cc:Work>
    </rdf:RDF>
  </metadata>
  <defs
     id="defs39" />
  <sodipodi:namedview
     pagecolor="#494949"
     bordercolor="#666666"
     borderopacity="1"
     objecttolerance="10"
     gridtolerance="10"
     guidetolerance="10"
     inkscape:pageopacity="0"
     inkscape:pageshadow="2"
     inkscape:window-width="1600"
     inkscape:window-height="877"
     id="namedview37"
     showgrid="false"
     inkscape:zoom="3.48"
     inkscape:cx="104.29993"
     inkscape:cy="17.452053"
     inkscape:window-x="-8"
     inkscape:window-y="-8"
     inkscape:window-maximized="1"
     inkscape:current-layer="svg35"
     inkscape:document-rotation="0" />
  <g
     id="g1029"
     transform="matrix(1.2056607,0,0,1.0727139,-14.384165,-1.1359221)"
     style="fill:#212121;fill-opacity:1">
    <g
       viewBox="0 0 200 60"
       preserveAspectRatio="xMidYMid meet"
       class="style-scope yt-icon"
       fill="#FFFFFF"
       id="g33"
       style="fill:#212121;fill-opacity:1" />
    <g
       id="g172"
       style="fill:#212121;fill-opacity:1">
      <g
         aria-label="TuberTV"
         id="text45"
         style="font-size:53.3333px;line-height:1.25;font-family:'League Gothic';-inkscape-font-specification:'League Gothic';fill:#212121;fill-opacity:1">
        <path
           d="m 66.782607,18.232925 v -5.328 h 14.976 v 5.328 h -4.896 v 29.952 h -5.184 v -29.952 z"
           style="font-style:normal;font-variant:normal;font-weight:normal;font-stretch:normal;font-size:48px;font-family:'League Gothic';-inkscape-font-specification:'League Gothic';fill:#212121;fill-opacity:1"
           id="path45" />
        <path
           d="m 91.262607,21.928925 h 4.848 v 26.256 h -4.848 v -2.208 c -0.096,0.048 -0.288,0.24 -0.528,0.48 -0.576,0.576 -1.248,1.248 -2.112,1.728 -0.432,0.24 -0.864,0.384 -1.296,0.384 -1.296,0 -2.208,-0.768 -2.784,-1.776 -0.576,-0.96 -0.864,-2.256 -0.864,-3.36 v -21.504 h 4.848 v 20.784 c 0,1.008 0.576,1.152 1.152,1.152 0.528,0 0.816,-0.288 1.152,-0.624 0.144,-0.144 0.288,-0.384 0.432,-0.624 z"
           style="font-style:normal;font-variant:normal;font-weight:normal;font-stretch:normal;font-size:48px;font-family:'League Gothic';-inkscape-font-specification:'League Gothic';fill:#212121;fill-opacity:1"
           id="path47" />
        <path
           d="m 99.950602,12.904925 h 4.847998 v 10.752 c 0.816,-0.768 1.536,-1.344 2.496,-1.776 0.432,-0.24 0.912,-0.336 1.344,-0.336 1.344,0 2.256,0.768 2.88,1.728 0.576,1.008 0.864,2.304 0.864,3.408 v 16.752 c 0,1.104 -0.288,2.4 -0.864,3.36 -0.624,1.008 -1.536,1.776 -2.88,1.776 -0.912,0 -1.872,-0.528 -2.592,-1.056 -0.432,-0.336 -0.816,-0.672 -1.248,-1.056 v 1.728 h -4.847998 z m 4.847998,29.52 c 0,0.912 0.72,1.584 1.44,1.584 0.72,0 1.296,-0.672 1.296,-1.584 v -14.736 c 0,-0.912 -0.576,-1.584 -1.296,-1.584 -0.72,0 -1.44,0.816 -1.44,1.584 z"
           style="font-style:normal;font-variant:normal;font-weight:normal;font-stretch:normal;font-size:48px;font-family:'League Gothic';-inkscape-font-specification:'League Gothic';fill:#212121;fill-opacity:1"
           id="path49" />
        <path
           d="m 128.17456,38.776925 v 3.024 c -0.144,2.544 -0.912,4.32 -2.64,5.712 -0.864,0.72 -2.064,1.056 -3.648,1.056 -3.12,0 -4.704,-1.728 -5.472,-3.456 -0.432,-1.008 -0.72,-2.16 -0.768,-3.456 v -13.2 c 0.144,-2.544 0.96,-4.416 2.688,-5.856 0.816,-0.72 2.016,-1.056 3.6,-1.056 3.12,0 4.704,1.728 5.472,3.408 0.432,1.008 0.72,2.112 0.768,3.36 v 7.632 h -8.016 v 5.712 c 0.048,1.008 0.336,1.728 0.768,2.256 0.24,0.24 0.576,0.384 1.008,0.384 0.912,0 1.344,-0.576 1.536,-1.296 0.144,-0.384 0.192,-0.816 0.192,-1.344 v -2.88 z m -8.016,-6.624 h 3.504 v -3.696 c 0,-1.008 -0.192,-1.728 -0.672,-2.304 -0.24,-0.24 -0.624,-0.384 -1.056,-0.384 -0.912,0 -1.296,0.624 -1.536,1.344 -0.144,0.384 -0.192,0.816 -0.24,1.344 z"
           style="font-style:normal;font-variant:normal;font-weight:normal;font-stretch:normal;font-size:48px;font-family:'League Gothic';-inkscape-font-specification:'League Gothic';fill:#212121;fill-opacity:1"
           id="path51" />
        <path
           d="m 141.08645,26.920925 c -0.432,-0.144 -0.912,-0.192 -1.344,-0.192 -0.768,0 -1.68,0.096 -2.448,0.816 -0.912,0.768 -1.056,1.584 -1.056,2.4 v 18.24 h -4.848 v -26.256 h 4.848 v 2.928 c 0.048,-0.336 0.384,-1.152 1.152,-1.92 0.768,-0.72 1.92,-1.392 3.696,-1.392 z"
           style="font-style:normal;font-variant:normal;font-weight:normal;font-stretch:normal;font-size:48px;font-family:'League Gothic';-inkscape-font-specification:'League Gothic';fill:#212121;fill-opacity:1"
           id="path53" />
        <path
           d="M 141.38504,14.904945 V 8.9849484 h 16.63999 v 5.9199966 h -5.44 v 33.27998 h -5.75999 v -33.27998 z"
           style="font-weight:bold;font-size:53.3333px;fill:#212121;fill-opacity:1;stroke:#00e26b;stroke-opacity:1"
           id="path55" />
        <path
           d="m 170.71836,8.9849484 h 5.59999 l -5.97333,39.1999766 h -5.75999 L 158.6117,8.9849484 h 5.59999 l 2.88,21.5466536 0.21334,1.653333 h 0.32 l 0.21333,-1.653333 z"
           style="font-weight:bold;font-size:53.3333px;fill:#212121;fill-opacity:1;stroke:#00e26b;stroke-opacity:1"
           id="path57" />
      </g>
    </g>
  </g>
  <path
     style="fill:#ff0000;stroke-width:0.0232399"
     d=""
     id="path100" />
  <path
     style="fill:#ff0000;stroke-width:0.0232399"
     d=""
     id="path108" />
  <path
     style="fill:#ff0000;stroke-width:0.0232399"
     d=""
     id="path118" />
  <path
     style="fill:#ff0000;stroke-width:0.0232399"
     d=""
     id="path120" />
  <path
     style="fill:#ff0000;stroke-width:0.0232399"
     d=""
     id="path122" />
  <path
     style="fill:#ff0000;stroke-width:0.0232399"
     d=""
     id="path124" />
  <path
     style="fill:#ff0000;stroke-width:0.0232399"
     d=""
     id="path126" />
  <path
     style="fill:#ff0000;stroke-width:0.0232399"
     d=""
     id="path128" />
  <path
     style="fill:#ff0000;stroke-width:0.0232399"
     d=""
     id="path130" />
  <path
     style="fill:#ff0000;stroke-width:0.0232399"
     d=""
     id="path132" />
  <path
     style="fill:#ff0000;stroke-width:0.0232399"
     d=""
     id="path134" />
  <path
     style="fill:#ff0000;stroke-width:0.0232399"
     d=""
     id="path136" />
  <rect
     style="fill:#00e26b;fill-opacity:1;stroke:#212121;stroke-width:1.03953;stroke-opacity:1"
     id="rect1657"
     width="63.212437"
     height="36.755741"
     x="1.791765"
     y="11.961765" />
  <rect
     style="fill:#000000;fill-opacity:1;stroke:#212121;stroke-width:0.945;stroke-miterlimit:4;stroke-dasharray:none;stroke-opacity:1"
     id="rect4257"
     width="30.236221"
     height="1.1338583"
     x="18.377501"
     y="50.412766" />
  <text
     xml:space="preserve"
     style="font-size:96.0728px;line-height:1.25;font-family:'League Gothic';-inkscape-font-specification:'League Gothic';fill:#212121;fill-opacity:1;stroke-width:1.50114"
     x="8.5008516"
     y="71.281403"
     id="text4261"
     transform="scale(1.4799178,0.6757132)"><tspan
       sodipodi:role="line"
       id="tspan4259"
       x="8.5008516"
       y="71.281403"
       style="fill:#212121;fill-opacity:1;stroke-width:1.50114">v</tspan></text>
</svg>
