<?xml version="1.0" encoding="UTF-8" standalone="no"?>
<svg
   xmlns:dc="http://purl.org/dc/elements/1.1/"
   xmlns:cc="http://creativecommons.org/ns#"
   xmlns:rdf="http://www.w3.org/1999/02/22-rdf-syntax-ns#"
   xmlns:svg="http://www.w3.org/2000/svg"
   xmlns="http://www.w3.org/2000/svg"
   xmlns:sodipodi="http://sodipodi.sourceforge.net/DTD/sodipodi-0.dtd"
   xmlns:inkscape="http://www.inkscape.org/namespaces/inkscape"
   viewBox="0 0 200 60"
   preserveAspectRatio="xMidYMid meet"
   focusable="false"
   class="style-scope yt-icon"
   style="pointer-events: none; display: block; width: 100%; height: 100%;"
   width="200"
   height="60"
   version="1.1"
   id="svg35"
   sodipodi:docname="log.svg"
   inkscape:version="1.0.1 (3bc2e813f5, 2020-09-07)">
  <metadata
     id="metadata41">
    <rdf:RDF>
      <cc:Work
         rdf:about="">
        <dc:format>image/svg+xml</dc:format>
        <dc:type
           rdf:resource="http://purl.org/dc/dcmitype/StillImage" />
        <dc:title></dc:title>
      </cc:Work>
    </rdf:RDF>
  </metadata>
  <defs
     id="defs39" />
  <sodipodi:namedview
     pagecolor="#494949"
     bordercolor="#666666"
     borderopacity="1"
     objecttolerance="10"
     gridtolerance="10"
     guidetolerance="10"
     inkscape:pageopacity="0"
     inkscape:pageshadow="2"
     inkscape:window-width="1600"
     inkscape:window-height="877"
     id="namedview37"
     showgrid="false"
     inkscape:zoom="1.9016524"
     inkscape:cx="73.310837"
     inkscape:cy="-15.172862"
     inkscape:window-x="-8"
     inkscape:window-y="-8"
     inkscape:window-maximized="1"
     inkscape:current-layer="svg35"
     inkscape:document-rotation="0" />
  <g
     id="g1029">
    <g
       viewBox="0 0 200 60"
       preserveAspectRatio="xMidYMid meet"
       class="style-scope yt-icon"
       fill="#FFFFFF"
       id="g33">
      <g
         class="style-scope yt-icon"
         fill="#FFFFFF"
         id="g14">
        <path
           fill="#FF0000"
           d="M63,14.87c-0.72-2.7-2.85-4.83-5.56-5.56C52.54,8,32.88,8,32.88,8S13.23,8,8.32,9.31 c-2.7,0.72-4.83,2.85-5.56,5.56C1.45,19.77,1.45,30,1.45,30s0,10.23,1.31,15.13c0.72,2.7,2.85,4.83,5.56,5.56 C13.23,52,32.88,52,32.88,52s19.66,0,24.56-1.31c2.7-0.72,4.83-2.85,5.56-5.56C64.31,40.23,64.31,30,64.31,30 S64.31,19.77,63,14.87z"
           class="style-scope yt-icon"
           id="path10" />
        <path
           id="polygon12"
           style="fill:#ffffff"
           d="M 26.6,39.43 42.93,30 26.6,20.57 Z"
           class="style-scope yt-icon" />
        <path
           style="fill:#ffffff;stroke-width:0.185919"
           d="m 26.65494,30 v -9.275331 l 4.322617,2.497721 c 2.37744,1.373747 5.972098,3.43978 7.988129,4.591186 2.016032,1.151405 3.665512,2.135296 3.665512,2.186424 0,0.05113 -1.64948,1.035019 -3.665512,2.186424 -2.016031,1.151406 -5.610689,3.217439 -7.988129,4.591186 l -4.322617,2.497722 z"
           id="path876" />
        <path
           style="fill:#ffffff;stroke-width:0.185919"
           d="m 26.65494,30 v -9.317027 l 0.790156,0.473393 c 0.434586,0.260367 4.029652,2.335782 7.989037,4.612034 3.959385,2.276252 7.198882,4.180472 7.198882,4.2316 0,0.05113 -3.239497,1.955348 -7.198882,4.2316 -3.959385,2.276252 -7.554451,4.351667 -7.989037,4.612034 l -0.790156,0.473394 z"
           id="path878" />
        <path
           style="fill:#ffffff;stroke-width:0.185919"
           d="m 26.65494,30 v -9.338717 l 0.418318,0.270612 c 0.442977,0.286563 13.687372,7.937613 14.871989,8.591281 0.382615,0.211125 0.695663,0.425696 0.695663,0.476824 0,0.05113 -0.313048,0.265699 -0.695663,0.476824 -1.184617,0.653668 -14.429012,8.304718 -14.871989,8.591281 l -0.418318,0.270612 z"
           id="path880" />
        <path
           style="fill:#ffffff;stroke-width:0.185919"
           d="m 26.65494,30 v -9.303473 l 0.896047,0.515038 C 37.28763,26.808084 42.63929,29.925288 42.639095,30 c -2e-4,0.0767 -3.569338,2.155423 -15.089631,8.788435 l -0.894524,0.515039 z"
           id="path882" />
        <path
           style="fill:#ffffff;stroke-width:0.185919"
           d="m 26.65494,30 v -9.303473 l 0.900109,0.515038 C 34.530397,25.202823 42.639504,29.927314 42.639504,30 c 0,0.07269 -8.109107,4.797177 -15.084455,8.788435 l -0.900109,0.515039 z"
           id="path884" />
        <path
           style="fill:#ffffff;stroke-width:0.185919"
           d="m 26.65494,30 v -9.317485 l 1.079175,0.615004 c 5.364773,3.05729 14.907958,8.628507 14.906867,8.702481 -0.0011,0.07428 -9.873573,5.838236 -14.905582,8.702481 l -1.08046,0.615004 z"
           id="path886" />
        <path
           style="fill:#ff0000;stroke-width:0.185919"
           d="m 26.65494,30 v -9.33268 l 0.604237,0.350744 c 0.33233,0.19291 3.929686,2.271847 7.994123,4.619861 4.064438,2.348014 7.389887,4.310947 7.389887,4.362075 0,0.05113 -3.325449,2.014061 -7.389887,4.362075 -4.064437,2.348014 -7.661793,4.426951 -7.994123,4.619861 L 26.65494,39.33268 Z"
           id="path890" />
        <path
           style="fill:#ff0000;stroke-width:0.185919"
           d="m 26.65494,30 c 0,-7.245795 0.04836,-9.13035 0.232399,-9.056274 0.8572,0.345025 15.29184,8.89364 15.29184,9.056274 0,0.162634 -14.43464,8.711249 -15.29184,9.056274 C 26.703301,39.13035 26.65494,37.245795 26.65494,30 Z"
           id="path892" />
        <path
           style="fill:#ff0000;stroke-width:0.185919"
           d="m 26.65494,30 c 0,-5.010518 0.04806,-9.110033 0.106805,-9.110033 0.234129,0 15.510394,8.972517 15.510394,9.110033 0,0.137516 -15.276265,9.110033 -15.510394,9.110033 -0.05874,0 -0.106805,-4.099515 -0.106805,-9.110033 z"
           id="path894" />
        <path
           style="fill:#ff0000;stroke-width:0.185919"
           d="M 22.192883,51.750633 C 13.83466,51.458708 9.4559065,51.017472 7.4695265,50.266997 5.7325425,49.610746 4.1428864,48.082541 3.3096354,46.267916 2.1781058,43.80371 1.6683918,38.751453 1.6683918,30 c 0,-6.945344 0.2356144,-10.492954 0.9260699,-13.943689 0.5236739,-2.6172 1.9047516,-4.704103 3.8786283,-5.860872 2.5189895,-1.4762257 9.606,-2.0176511 26.410138,-2.0176511 16.783735,0 23.891862,0.5418435 26.401429,2.0125481 1.76605,1.034975 3.152344,2.922107 3.694395,5.029101 1.322768,5.141712 1.604007,18.071265 0.57021,26.214584 -0.511603,4.029936 -1.070196,5.480387 -2.757096,7.1591 -2.044449,2.034527 -4.111746,2.509523 -12.942456,2.973742 -5.061913,0.266098 -20.196007,0.374499 -25.656827,0.18377 z M 34.869152,34.787415 C 39.347601,32.205465 43.011944,30.051128 43.012136,30 c 3.72e-4,-0.09924 -15.732147,-9.210455 -16.241131,-9.405771 -0.276272,-0.106016 -0.301984,0.693129 -0.301984,9.38588 0,5.22597 0.05794,9.501762 0.128747,9.501762 0.07081,0 3.792934,-2.112505 8.271384,-4.694456 z"
           id="path896" />
        <path
           style="fill:#ff0000;stroke-width:0.185919"
           d="M 22.099923,51.752557 C 14.308746,51.478507 10.061995,51.083702 7.976507,50.439562 5.7152266,49.741123 3.6230791,47.630937 2.9463895,45.366071 2.0377115,42.324748 1.6508024,37.688005 1.6564236,29.90704 1.6619581,22.245964 2.0509793,17.654934 2.9515777,14.62229 3.6365199,12.315839 5.6900238,10.266662 8.045457,9.5391424 11.078775,8.6022458 18.845539,8.1759878 32.883228,8.1759878 c 14.071455,0 21.803396,0.4259317 24.85783,1.3693508 2.035777,0.6287874 3.802069,2.1969354 4.715762,4.1867454 1.707691,3.718949 2.286626,18.538724 1.085808,27.794896 -0.501155,3.863035 -1.081448,5.396957 -2.639606,6.97744 -2.079318,2.109113 -4.043742,2.573422 -12.960352,3.063296 -4.712912,0.258926 -20.521896,0.372 -25.842747,0.184841 z M 34.864126,34.787415 C 39.343698,32.205465 43.008761,30.051128 43.008709,30 c -1.8e-4,-0.175846 -16.244055,-9.456718 -16.391816,-9.365398 -0.178592,0.110377 -0.201119,18.847269 -0.02266,18.847269 0.06887,0 3.79032,-2.112505 8.269893,-4.694456 z"
           id="path898" />
        <path
           style="fill:#ff0000;stroke-width:0.185919"
           d="m 26.65494,30 c 0,-7.243518 0.04842,-9.131216 0.232399,-9.060544 0.127819,0.0491 3.07696,1.745065 6.553646,3.768813 3.476686,2.023748 6.885976,4.007685 7.5762,4.408749 0.690225,0.401063 1.254954,0.798405 1.254954,0.882982 0,0.08458 -0.564729,0.481919 -1.254954,0.882982 -0.690224,0.401064 -4.099514,2.385001 -7.5762,4.408749 -3.476686,2.023748 -6.425827,3.719713 -6.553646,3.768813 C 26.703358,39.131216 26.65494,37.243518 26.65494,30 Z"
           id="path900" />
        <path
           style="fill:#ff0000;stroke-width:0.185919"
           d="m 26.65494,30 c 0,-5.010518 0.04815,-9.110033 0.107001,-9.110033 0.123322,0 0.398877,0.158179 9.049511,5.194763 3.553378,2.068852 6.460687,3.830724 6.460687,3.91527 0,0.08455 -2.907309,1.846418 -6.460687,3.91527 -8.650634,5.036584 -8.926189,5.194763 -9.049511,5.194763 -0.05885,0 -0.107001,-4.099515 -0.107001,-9.110033 z"
           id="path902" />
        <path
           style="fill:#ff0000;stroke-width:0.185919"
           d="m 26.65494,30 c 0,-5.010518 0.06275,-9.109818 0.139439,-9.109556 0.330535,0.0011 15.3848,8.914973 15.3848,9.109556 0,0.194583 -15.054265,9.108424 -15.3848,9.109556 C 26.717688,39.109818 26.65494,35.010518 26.65494,30 Z"
           id="path904" />
        <path
           style="fill:#ff0000;stroke-width:0.185919"
           d="m 26.65494,30 c 0,-5.010518 0.06423,-9.110033 0.142734,-9.110033 0.329514,0 15.381505,8.914871 15.381505,9.110033 0,0.195162 -15.051991,9.110033 -15.381505,9.110033 -0.0785,0 -0.142734,-4.099515 -0.142734,-9.110033 z"
           id="path906" />
        <path
           style="fill:#ff0000;stroke-width:0.185919"
           d="M 24.60983,51.827622 C 15.24168,51.531524 10.148559,51.110439 8.0333812,50.457127 5.7124755,49.740274 3.6308669,47.657001 2.9463895,45.366071 2.0194009,42.263461 1.6458057,37.683788 1.6625407,29.628162 1.6727162,24.730005 1.7581776,22.284923 1.9939541,20.146291 2.3339262,17.062545 2.8490966,14.559514 3.3437648,13.588039 4.3597363,11.592779 6.015093,10.171957 8.0682272,9.5329501 11.052617,8.6041036 18.881644,8.1759878 32.883228,8.1759878 c 14.037688,0 21.804452,0.426258 24.83777,1.3631546 1.638151,0.5059726 3.121201,1.6038996 4.054613,3.0016956 1.132848,1.696452 1.557054,3.459423 2.098435,8.720967 0.366134,3.558355 0.304545,14.77543 -0.10106,18.405747 -0.679211,6.079195 -1.379307,7.837335 -3.864402,9.704598 -1.734721,1.303445 -4.455027,1.809639 -11.779995,2.192021 -3.758718,0.196213 -19.91878,0.377233 -23.518759,0.263451 z m 7.122518,-15.253116 c 9.059507,-5.210359 11.097548,-6.418143 11.097548,-6.576625 0,-0.258394 -15.997946,-9.482247 -16.221436,-9.352709 -0.159279,0.09232 -0.194471,18.836699 -0.03537,18.836699 0.05724,0 2.378904,-1.308314 5.159253,-2.907365 z"
           id="path908" />
        <path
           style="fill:#ff0000;stroke-width:0.185919"
           d="M 24.145033,51.827163 C 15.101362,51.52183 10.104933,51.096966 8.0333812,50.457127 5.9288412,49.807102 4.1450423,48.195844 3.2234612,46.112458 2.1425667,43.668916 1.6698975,38.766728 1.6698975,30 c 0,-11.831592 0.7356005,-16.080992 3.211295,-18.550933 C 6.9766772,9.3584524 8.8581459,8.9216071 18.009705,8.4008479 23.134011,8.1092551 42.66239,8.1118593 47.84971,8.4048272 c 7.782175,0.4395194 10.22601,0.8939262 12.126434,2.2547898 1.204515,0.862534 2.423359,2.563955 2.838734,3.962673 1.801518,6.066371 1.807273,24.81451 0.0094,30.743781 -0.429703,1.417164 -1.644651,3.112491 -2.84817,3.974313 -1.879941,1.346195 -4.423902,1.827463 -11.754595,2.223737 -3.628195,0.196129 -20.57461,0.381271 -24.076515,0.263042 z m 9.356277,-16.2813 c 3.750273,-2.164803 7.383408,-4.263626 8.073633,-4.664047 0.690224,-0.400423 1.254953,-0.795933 1.254953,-0.87891 0,-0.160028 -2.061734,-1.380497 -10.591045,-6.269504 -2.910795,-1.668469 -5.37887,-3.004753 -5.484612,-2.969521 -0.204682,0.0682 -0.384157,18.71799 -0.180133,18.71799 0.05969,0 3.176931,-1.771204 6.927204,-3.936008 z"
           id="path910" />
        <path
           style="fill:#ff0000;stroke-width:0.185919"
           d="M 23.773195,51.826715 C 16.873753,51.591895 11.839822,51.234397 9.3644694,50.803444 5.8155078,50.185576 3.3449392,47.719168 2.5864973,44.036887 1.2657147,37.624408 1.2579532,22.365329 2.5722648,16.056072 3.410474,12.03231 5.8138985,9.7582026 9.9222265,9.1015775 17.310745,7.9206869 43.268518,7.7547127 53.70616,8.8216226 c 3.795503,0.3879671 5.697833,1.0914297 7.238601,2.6767654 2.385453,2.454451 3.135532,6.759006 3.159153,18.129774 0.01673,8.055626 -0.35686,12.635299 -1.283849,15.737909 -0.421779,1.411691 -1.637182,3.110185 -2.843921,3.974313 -1.869509,1.338725 -4.37007,1.815479 -11.661636,2.223387 -3.512656,0.196507 -20.991035,0.383778 -24.541313,0.262944 z M 34.463539,34.970677 c 7.507616,-4.324995 8.366357,-4.835672 8.366357,-4.975295 0,-0.189487 -15.12921,-8.949688 -15.914677,-9.215006 -0.194282,-0.06563 0.901715,0.610937 2.435547,1.50347 8.498539,4.945282 12.921373,7.586431 12.921373,7.716154 0,0.169633 -14.50001,8.721111 -15.323388,9.037069 -0.264676,0.101566 -0.298221,-0.705052 -0.338285,-8.134062 l -0.04447,-8.246809 -0.05051,8.180438 c -0.02778,4.49924 -0.01078,8.283979 0.03775,8.410531 0.06534,0.170341 0.246918,0.138636 0.699218,-0.122093 0.336026,-0.193704 3.581012,-2.063183 7.211081,-4.154397 z"
           id="path912" />
        <path
           style="fill:#ff0000;stroke-width:0.185919"
           d="M 21.170328,51.752447 C 16.343637,51.557173 12.451391,51.262461 10.015186,50.907802 7.7263054,50.574591 6.2019528,49.873737 4.8707574,48.542542 2.3743484,46.046133 1.6690212,41.9613 1.6690212,30 c 0,-11.961299 0.7053272,-16.046133 3.2017362,-18.542542 C 7.240746,9.0874694 9.7329387,8.6522918 23.37475,8.2263579 30.347139,8.0086613 42.680226,8.1133889 48.593386,8.4405044 56.706729,8.8893337 58.843872,9.4124218 60.885263,11.449067 63.361279,13.91933 64.098924,18.177399 64.098924,30 c 0,7.148554 -0.235278,10.732165 -0.917553,13.975582 -0.709642,3.373525 -2.573752,5.585964 -5.464571,6.485687 -1.487241,0.462881 -4.746251,0.852858 -9.216373,1.102839 -4.719018,0.263901 -22.443327,0.386044 -27.330099,0.188339 z M 32.052673,36.359716 c 8.089464,-4.651263 10.777223,-6.234762 10.777223,-6.349416 0,-0.141533 0.136669,-0.0594 -6.442165,-3.871709 -5.405983,-3.132666 -8.686671,-4.965679 -8.05952,-4.50308 0.153383,0.113139 3.330123,1.992173 7.059422,4.175632 3.729298,2.183458 6.8071,4.0496 6.839562,4.146982 0.06602,0.198064 -0.137348,0.322308 -8.955036,5.47093 -3.467286,2.024538 -6.3736,3.680978 -6.458478,3.680978 -0.08488,0 -0.177257,-3.200132 -0.205288,-7.111403 l -0.05096,-7.111404 -0.0442,7.204363 c -0.03534,5.760506 0.0036,7.204363 0.194276,7.204363 0.131164,0 2.536492,-1.321306 5.345172,-2.936236 z M 27.68844,21.162933 c -0.198491,-0.150131 -0.449482,-0.270001 -0.557757,-0.266378 -0.108276,0.0036 0.01229,0.126154 0.267933,0.272291 0.602238,0.344271 0.748854,0.34128 0.289824,-0.0059 z"
           id="path914" />
        <path
           style="fill:#ff0000;stroke-width:0.185919"
           d="M 20.80671,51.75077 C 15.923866,51.540487 12.097847,51.243282 9.9222265,50.905266 6.145581,50.318508 3.8143015,48.355192 2.7883936,44.897423 1.471592,40.459212 1.1534435,25.682559 2.2118741,18.120528 2.7040902,14.603856 3.4024256,12.869129 4.9215481,11.389458 7.3518531,9.0222666 9.8711022,8.6130386 24.467684,8.2143736 c 12.111793,-0.3307998 26.347712,0.070168 31.376545,0.8837499 4.127122,0.6676997 6.509406,2.9229245 7.349961,6.9579485 1.142595,5.484944 1.323472,18.665522 0.352395,25.679192 -0.503926,3.639638 -1.106276,5.227543 -2.544252,6.707111 -2.043973,2.103095 -4.213455,2.649885 -12.408947,3.127517 -4.286434,0.249812 -23.310493,0.37365 -27.786676,0.180878 z m 6.601139,-12.738471 c 0.301689,-0.156008 0.548524,-0.325485 0.548524,-0.376613 0,-0.08327 -1.094621,0.419763 -1.28594,0.590952 -0.187989,0.168208 0.235925,0.04499 0.737416,-0.214339 z m -0.799764,-8.501022 c -0.0311,-1.559396 -0.05654,-0.283526 -0.05654,2.835266 0,3.118792 0.02544,4.394661 0.05654,2.835265 0.0311,-1.559396 0.0311,-4.111135 0,-5.670531 z m 9.017448,3.76398 c 3.9624,-2.284823 7.204363,-4.203163 7.204363,-4.262977 0,-0.139601 0.15087,-0.04845 -5.298692,-3.201351 -5.596857,-3.23812 -6.918935,-3.981227 -6.752972,-3.795679 0.06932,0.0775 2.660399,1.631468 5.757955,3.453266 3.097558,1.821797 5.659037,3.393701 5.692177,3.49312 0.05285,0.158536 -5.21705,3.344575 -11.901523,7.195345 -1.201502,0.692156 -2.184549,1.29419 -2.184549,1.337853 0,0.104146 -0.681391,0.488365 7.483241,-4.219577 z M 30.55924,22.846891 c 0,-0.0485 -0.250991,-0.217977 -0.557757,-0.376612 -0.69922,-0.361581 -0.741527,-0.204532 -0.04648,0.172538 0.58426,0.316966 0.604237,0.323713 0.604237,0.204074 z m -1.301434,-0.741909 c 0,-0.04753 -0.188243,-0.177641 -0.418317,-0.289135 -0.401703,-0.194664 -0.403982,-0.191232 -0.05743,0.08642 0.379323,0.303902 0.475742,0.344986 0.475742,0.202717 z"
           id="path916" />
        <path
           style="fill:#ff0000;stroke-width:0.185919"
           d="M 20.705531,51.749722 C 15.90789,51.546581 12.191216,51.25512 9.9222265,50.904099 5.9267095,50.285976 3.650277,48.236161 2.6602006,44.364999 1.4580553,39.664655 1.2118751,25.26506 2.2115553,18.122799 2.7026798,14.613938 3.3886821,12.90412 4.9195766,11.373226 7.1438277,9.1489746 9.9852739,8.6379594 22.285843,8.2500187 29.648692,8.0178059 36.602832,8.0179629 43.759491,8.2505036 53.162804,8.5560446 56.783864,8.9661437 58.812839,9.9553541 63.039598,12.016076 64.113965,16.082206 64.109107,30 c -0.004,11.581825 -0.768664,16.125288 -3.107296,18.463923 -2.084205,2.084202 -4.178724,2.612305 -12.315465,3.105171 -4.151312,0.251456 -23.376926,0.375566 -27.980815,0.180628 z m 6.702318,-12.737423 c 0.301689,-0.156008 0.548524,-0.325485 0.548524,-0.376613 0,-0.08327 -1.094621,0.419763 -1.28594,0.590952 -0.187989,0.168208 0.235925,0.04499 0.737416,-0.214339 z m 1.849957,-1.123823 c 0,-0.05113 -0.167327,-0.0034 -0.371838,0.106043 -0.204511,0.10945 -0.371838,0.240834 -0.371838,0.291961 0,0.05113 0.167327,0.0034 0.371838,-0.106042 0.204511,-0.109451 0.371838,-0.240834 0.371838,-0.291962 z m 1.301434,-0.740142 c 0,-0.05113 -0.250991,0.03683 -0.557757,0.195468 -0.306767,0.158635 -0.557758,0.330259 -0.557758,0.381387 0,0.05113 0.250991,-0.03683 0.557758,-0.195468 0.306766,-0.158635 0.557757,-0.330259 0.557757,-0.381387 z m 7.316819,-4.173629 C 40.600498,31.389745 42.829125,30.051128 42.828565,30 c -5.58e-4,-0.05113 -0.230566,-0.225537 -0.511121,-0.387574 -0.280558,-0.162038 -2.225206,-1.296018 -4.321443,-2.519952 -4.662652,-2.722395 -6.099016,-3.527032 -5.85645,-3.280723 0.102256,0.103833 2.427627,1.506627 5.167494,3.11732 2.739864,1.610693 4.954459,3.009875 4.921319,3.109293 -0.03314,0.09942 -2.594619,1.671323 -5.692177,3.49312 -3.097556,1.821798 -5.688637,3.374899 -5.757955,3.451334 -0.179287,0.197697 1.444288,-0.719128 7.097827,-4.008113 z M 26.607194,31.989501 c -0.03437,-0.838588 -0.06231,-0.102423 -0.0621,1.63592 1.86e-4,1.738343 0.02833,2.424459 0.06249,1.524704 0.03415,-0.899757 0.03398,-2.322038 -3.72e-4,-3.160624 z m 5.253479,-8.398933 c 0,-0.0485 -0.250991,-0.217978 -0.557757,-0.376613 -0.699219,-0.36158 -0.741527,-0.204532 -0.04648,0.172538 0.58426,0.316966 0.604237,0.323713 0.604237,0.204075 z M 30.55924,22.846891 c 0,-0.0485 -0.250991,-0.217977 -0.557757,-0.376612 -0.69922,-0.361581 -0.741527,-0.204532 -0.04648,0.172538 0.58426,0.316966 0.604237,0.323713 0.604237,0.204074 z m -1.301434,-0.741909 c 0,-0.04753 -0.188243,-0.177641 -0.418317,-0.289135 -0.401703,-0.194664 -0.403982,-0.191232 -0.05743,0.08642 0.379323,0.303902 0.475742,0.344986 0.475742,0.202717 z"
           id="path918" />
        <path
           style="fill:#ff0000;stroke-width:0.185919"
           d="M 20.567646,51.741065 C 12.72477,51.43593 8.8056104,50.94757 6.9536169,50.044645 2.6996439,47.970657 1.6575327,44.030239 1.6524644,30 1.6481701,18.112166 2.3798664,13.912936 4.8935593,11.399243 7.1482431,9.1445591 9.8975478,8.6407875 22.099923,8.2464173 c 13.04937,-0.4217442 28.507128,-0.030301 33.837265,0.8568745 3.788878,0.6306405 6.05965,2.5755682 7.041555,6.0311262 1.615005,5.683587 1.614594,24.03354 -7.43e-4,29.731164 -0.438323,1.546135 -1.121073,2.751065 -2.131199,3.761193 -2.236127,2.236124 -5.265826,2.772936 -17.645145,3.12642 -7.036134,0.200913 -17.299653,0.195412 -22.634088,-0.01212 z m 6.840203,-12.728766 c 0.301689,-0.156008 0.548524,-0.325485 0.548524,-0.376613 0,-0.08327 -1.094621,0.419763 -1.28594,0.590952 -0.187989,0.168208 0.235925,0.04499 0.737416,-0.214339 z m 1.849957,-1.123823 c 0,-0.05113 -0.167327,-0.0034 -0.371838,0.106043 -0.204511,0.10945 -0.371838,0.240834 -0.371838,0.291961 0,0.05113 0.167327,0.0034 0.371838,-0.106042 0.204511,-0.109451 0.371838,-0.240834 0.371838,-0.291962 z m 1.301434,-0.740142 c 0,-0.05113 -0.250991,0.03683 -0.557757,0.195468 -0.306767,0.158635 -0.557758,0.330259 -0.557758,0.381387 0,0.05113 0.250991,-0.03683 0.557758,-0.195468 0.306766,-0.158635 0.557757,-0.330259 0.557757,-0.381387 z m 1.301433,-0.743676 c 0,-0.05113 -0.250991,0.03683 -0.557757,0.195468 -0.306767,0.158635 -0.557757,0.330259 -0.557757,0.381387 0,0.05113 0.25099,-0.03683 0.557757,-0.195468 0.306766,-0.158636 0.557757,-0.330259 0.557757,-0.381387 z m 0.929595,-0.561291 c 0,-0.05113 -0.167327,-0.0034 -0.371838,0.106042 -0.204511,0.109451 -0.371838,0.240834 -0.371838,0.291962 0,0.05113 0.167327,0.0034 0.371838,-0.106043 0.204511,-0.10945 0.371838,-0.240834 0.371838,-0.291961 z m 1.301433,-0.740142 c 0,-0.05113 -0.25099,0.03683 -0.557757,0.195468 -0.306766,0.158635 -0.557757,0.330259 -0.557757,0.381386 0,0.05113 0.250991,-0.03683 0.557757,-0.195467 0.306767,-0.158636 0.557757,-0.33026 0.557757,-0.381387 z m 5.391652,-3.070494 c 1.687216,-0.986869 3.067665,-1.90086 3.067665,-2.031093 0,-0.130233 -1.380449,-1.046507 -3.067665,-2.036167 -4.125545,-2.419894 -5.205733,-3.02789 -5.205733,-2.930106 0,0.04536 1.798767,1.14709 3.99726,2.448293 2.198492,1.301205 3.997259,2.43356 3.997259,2.516342 0,0.08278 -1.798767,1.215137 -3.997259,2.516342 -2.198493,1.301204 -3.99726,2.402936 -3.99726,2.448293 0,0.09392 0.878243,-0.400713 5.205733,-2.931904 z m -12.881168,1.174372 c -0.0426,-0.281202 -0.07745,-0.05113 -0.07745,0.511278 0,0.562405 0.03486,0.79248 0.07745,0.511277 0.0426,-0.281202 0.0426,-0.741352 0,-1.022555 z m 7.387261,-8.388119 c -0.289418,-0.264148 -1.942854,-1.183507 -1.942854,-1.080284 0,0.09291 1.86955,1.229233 2.035813,1.237384 0.04601,0.0023 0.0042,-0.06844 -0.09296,-0.1571 z m -2.128773,-1.228416 c 0,-0.0485 -0.250991,-0.217978 -0.557757,-0.376613 -0.699219,-0.36158 -0.741527,-0.204532 -0.04648,0.172538 0.58426,0.316966 0.604237,0.323713 0.604237,0.204075 z M 30.55924,22.846891 c 0,-0.0485 -0.250991,-0.217977 -0.557757,-0.376612 -0.69922,-0.361581 -0.741527,-0.204532 -0.04648,0.172538 0.58426,0.316966 0.604237,0.323713 0.604237,0.204074 z"
           id="path920" />
        <path
           style="fill:#ff0000;stroke-width:0.185919"
           d="M 22.192883,51.813423 C 16.410994,51.632916 10.128201,51.092978 8.4024792,50.62829 7.0944249,50.276068 5.840327,49.547526 4.8675419,48.57474 2.3702284,46.077427 1.6496979,41.87012 1.6546479,29.814081 1.6594902,18.020371 2.3823708,13.910432 4.8935593,11.399243 7.1492506,9.1435517 9.8225037,8.6489471 21.914004,8.2501242 34.994939,7.8186661 50.561202,8.2066194 55.937188,9.0980738 c 3.777367,0.6263688 6.041279,2.5655032 7.047351,6.0363442 1.325059,4.571322 1.633657,19.136553 0.567066,26.7644 -0.487343,3.485281 -1.176622,5.199853 -2.704726,6.727957 -2.219442,2.219442 -5.273506,2.769243 -17.366266,3.126327 -5.325558,0.157258 -17.112903,0.190658 -21.28773,0.06032 z m 5.123719,-12.806607 c 0.340289,-0.272626 0.334356,-0.276497 -0.103905,-0.06777 -0.569104,0.271035 -0.674577,0.356911 -0.43836,0.356911 0.09976,0 0.343774,-0.13011 0.542265,-0.289136 z m 1.941204,-1.11834 c 0,-0.05113 -0.167327,-0.0034 -0.371838,0.106043 -0.204511,0.10945 -0.371838,0.240834 -0.371838,0.291961 0,0.05113 0.167327,0.0034 0.371838,-0.106042 0.204511,-0.109451 0.371838,-0.240834 0.371838,-0.291962 z M 30.55924,37.1448 c 0,-0.05113 -0.167327,-0.0034 -0.371838,0.106042 -0.204511,0.109451 -0.371838,0.240834 -0.371838,0.291962 0,0.05113 0.167327,0.0034 0.371838,-0.106043 0.204511,-0.10945 0.371838,-0.240833 0.371838,-0.291961 z m 2.231028,-1.301433 c 0,-0.05113 -0.167327,-0.0034 -0.371838,0.106042 -0.204511,0.109451 -0.371838,0.240834 -0.371838,0.291962 0,0.05113 0.167327,0.0034 0.371838,-0.106043 0.204511,-0.10945 0.371838,-0.240834 0.371838,-0.291961 z m 1.301433,-0.740142 c 0,-0.05113 -0.25099,0.03683 -0.557757,0.195468 -0.306766,0.158635 -0.557757,0.330259 -0.557757,0.381386 0,0.05113 0.250991,-0.03683 0.557757,-0.195467 0.306767,-0.158636 0.557757,-0.33026 0.557757,-0.381387 z m 4.039287,-2.291053 c 4.558911,-2.671509 4.534176,-2.65565 4.46516,-2.862701 -0.05597,-0.167918 -4.162105,-2.64426 -7.295973,-4.400081 -2.393118,-1.3408 -0.551374,-0.143501 3.114144,2.024473 2.121801,1.25494 3.85782,2.346701 3.85782,2.426137 0,0.07944 -1.736019,1.171197 -3.85782,2.426137 -2.121801,1.254943 -3.941484,2.362145 -4.043739,2.460453 -0.284168,0.273195 0.370726,-0.08807 3.760408,-2.074418 z m -4.039287,-7.918404 c 0,-0.04753 -0.188243,-0.177641 -0.418317,-0.289135 -0.401703,-0.194665 -0.403982,-0.191232 -0.05743,0.08642 0.379323,0.303901 0.475742,0.344986 0.475742,0.202717 z"
           id="path922" />
        <path
           style="fill:#ff0000;stroke-width:0.185919"
           d="M 22.006964,51.81392 C 15.938927,51.593528 10.096055,51.084323 8.4024792,50.62829 7.1036629,50.278556 5.8424409,49.549638 4.892544,48.599742 2.3632409,46.070438 1.6604964,42.030977 1.6567489,30 1.6544348,22.570335 1.8289542,19.712325 2.4832884,16.464209 3.3753208,12.036158 5.6006027,9.8038615 9.829267,9.0950722 c 8.163119,-1.3682644 37.944802,-1.3682644 46.107921,0 3.970985,0.6655981 6.182682,2.6832038 7.169066,6.5399298 1.21085,4.734377 1.454067,19.058651 0.445908,26.261702 -0.488219,3.48821 -1.177042,5.201829 -2.705283,6.730071 -2.228887,2.228884 -5.239474,2.772192 -17.3142,3.124616 -5.524415,0.161241 -17.824149,0.196969 -21.525715,0.06253 z m 5.577571,-12.995849 c 0,-0.05113 -0.167327,-0.0034 -0.371838,0.106043 -0.204511,0.10945 -0.371838,0.240834 -0.371838,0.291961 0,0.05113 0.167327,0.0034 0.371838,-0.106042 0.204511,-0.109451 0.371838,-0.240834 0.371838,-0.291962 z m 1.673271,-0.929595 c 0,-0.05113 -0.167327,-0.0034 -0.371838,0.106043 -0.204511,0.10945 -0.371838,0.240834 -0.371838,0.291961 0,0.05113 0.167327,0.0034 0.371838,-0.106042 0.204511,-0.109451 0.371838,-0.240834 0.371838,-0.291962 z M 30.55924,37.1448 c 0,-0.05113 -0.167327,-0.0034 -0.371838,0.106042 -0.204511,0.109451 -0.371838,0.240834 -0.371838,0.291962 0,0.05113 0.167327,0.0034 0.371838,-0.106043 0.204511,-0.10945 0.371838,-0.240833 0.371838,-0.291961 z m 2.231028,-1.301433 c 0,-0.05113 -0.167327,-0.0034 -0.371838,0.106042 -0.204511,0.109451 -0.371838,0.240834 -0.371838,0.291962 0,0.05113 0.167327,0.0034 0.371838,-0.106043 0.204511,-0.10945 0.371838,-0.240834 0.371838,-0.291961 z m 1.301433,-0.743677 c 0,-0.05113 -0.167327,-0.0034 -0.371838,0.106043 -0.204511,0.109451 -0.371838,0.240834 -0.371838,0.291962 0,0.05113 0.167327,0.0034 0.371838,-0.106043 0.204511,-0.10945 0.371838,-0.240834 0.371838,-0.291962 z m 2.231029,-1.301433 c 0,-0.05113 -0.167327,-0.0034 -0.371838,0.106043 -0.204511,0.10945 -0.371838,0.240834 -0.371838,0.291961 0,0.05113 0.167327,0.0034 0.371838,-0.106042 0.204511,-0.109451 0.371838,-0.240834 0.371838,-0.291962 z m 3.393022,-1.931691 c 1.610524,-0.945029 2.928225,-1.779917 2.928225,-1.855305 0,-0.07539 -1.317701,-0.917955 -2.928225,-1.872374 -3.352085,-1.986489 -3.207103,-1.905241 -3.207103,-1.797263 0,0.04507 1.296785,0.852038 2.881745,1.793259 1.58496,0.94122 2.881745,1.780524 2.881745,1.865117 0,0.08459 -1.296785,0.923897 -2.881745,1.865117 -1.58496,0.941221 -2.881745,1.748188 -2.881745,1.793258 0,0.09914 -0.32309,0.279652 3.207103,-1.791809 z M 36.32273,26.195201 c 0,-0.04753 -0.188243,-0.177641 -0.418318,-0.289135 -0.401702,-0.194665 -0.403982,-0.191232 -0.05743,0.08642 0.379323,0.303901 0.475743,0.344986 0.475743,0.202717 z m -0.929595,-0.557757 c 0,-0.04753 -0.188243,-0.177641 -0.418318,-0.289135 -0.401702,-0.194665 -0.403982,-0.191232 -0.05743,0.08642 0.379323,0.303901 0.475743,0.344986 0.475743,0.202717 z m -1.301434,-0.743676 c 0,-0.04753 -0.188243,-0.177641 -0.418317,-0.289135 -0.401703,-0.194665 -0.403982,-0.191232 -0.05743,0.08642 0.379323,0.303901 0.475742,0.344986 0.475742,0.202717 z"
           id="path924" />
        <path
           style="fill:#ff0000;stroke-width:0.185919"
           d="M 20.011331,51.741484 C 12.528395,51.416014 8.8484024,50.947254 6.9957211,50.083553 4.8047751,49.062154 3.2433467,46.97478 2.6116814,44.222806 1.814853,40.751268 1.4598051,34.641593 1.6230971,27.211214 1.8417559,17.261439 2.574625,13.718177 4.8935593,11.399243 7.1166006,9.1762016 9.8157699,8.6600115 21.356247,8.2509127 c 6.641026,-0.235418 16.597277,-0.2361089 23.14692,-0.00161 11.428977,0.4092017 14.153201,0.933409 16.369729,3.1499363 2.512183,2.512183 3.242307,6.700827 3.242307,18.600757 0,11.89993 -0.730124,16.088575 -3.242307,18.600757 -2.262166,2.262166 -5.183159,2.797316 -17.206364,3.152345 -6.788258,0.200448 -18.916485,0.194492 -23.655201,-0.01162 z M 32.790268,35.843367 c 0,-0.05113 -0.167327,-0.0034 -0.371838,0.106042 -0.204511,0.109451 -0.371838,0.240834 -0.371838,0.291962 0,0.05113 0.167327,0.0034 0.371838,-0.106043 0.204511,-0.10945 0.371838,-0.240834 0.371838,-0.291961 z m 1.301433,-0.743677 c 0,-0.05113 -0.167327,-0.0034 -0.371838,0.106043 -0.204511,0.109451 -0.371838,0.240834 -0.371838,0.291962 0,0.05113 0.167327,0.0034 0.371838,-0.106043 0.204511,-0.10945 0.371838,-0.240834 0.371838,-0.291962 z m 2.231029,-1.301433 c 0,-0.05113 -0.167327,-0.0034 -0.371838,0.106043 -0.204511,0.10945 -0.371838,0.240834 -0.371838,0.291961 0,0.05113 0.167327,0.0034 0.371838,-0.106042 0.204511,-0.109451 0.371838,-0.240834 0.371838,-0.291962 z m 3.393022,-1.939976 C 41.326276,30.905857 42.643977,30.06963 42.643977,30 c 0,-0.06963 -1.317701,-0.905857 -2.928225,-1.858281 -3.283192,-1.941599 -3.379722,-1.995126 -3.114144,-1.726826 0.102256,0.103303 1.419957,0.912891 2.928225,1.799085 1.508268,0.886192 2.742306,1.689902 2.742306,1.786022 0,0.09612 -1.234038,0.89983 -2.742306,1.786022 -1.508268,0.886194 -2.825969,1.695782 -2.928225,1.799085 -0.265578,0.268299 -0.169048,0.214773 3.114144,-1.726826 z m -3.393022,-5.66308 c 0,-0.04753 -0.188243,-0.177641 -0.418318,-0.289135 -0.401702,-0.194665 -0.403982,-0.191232 -0.05743,0.08642 0.379323,0.303901 0.475743,0.344986 0.475743,0.202717 z m -2.323988,-1.400934 c -0.0632,-0.102256 -0.214547,-0.184638 -0.336331,-0.183072 -0.133046,0.0017 -0.110115,0.07478 0.05745,0.183072 0.357173,0.230823 0.421535,0.230823 0.278879,0 z"
           id="path926" />
        <path
           style="fill:#ff0000;stroke-width:0.185919"
           d="M 19.590016,51.732043 C 15.275367,51.543943 10.427692,51.091081 8.8755524,50.731116 5.6079223,49.973301 3.450356,47.76348 2.6119026,44.315766 1.4578657,39.570374 1.1919698,25.49133 2.1220825,18.38006 2.8856438,12.542175 5.087204,9.8899149 9.829267,9.0950722 18.084903,7.7113005 47.636212,7.7122161 55.937188,9.0965 c 4.22639,0.7048001 6.453767,2.938764 7.345979,7.367708 0.654679,3.249829 0.829999,6.108979 0.829999,13.535792 0,11.973136 -0.714556,16.075043 -3.24027,18.600757 -2.266081,2.266082 -5.119457,2.793326 -17.045377,3.149629 -7.027384,0.209952 -19.212399,0.200731 -24.237503,-0.01835 z M 32.695992,35.951538 c 0.06514,-0.10539 -0.0095,-0.136558 -0.174946,-0.07307 -0.32209,0.123597 -0.38102,0.256858 -0.113589,0.256858 0.09622,0 0.226063,-0.08271 0.288535,-0.18379 z m 1.395709,-0.851848 c 0,-0.05113 -0.167327,-0.0034 -0.371838,0.106043 -0.204511,0.109451 -0.371838,0.240834 -0.371838,0.291962 0,0.05113 0.167327,0.0034 0.371838,-0.106043 0.204511,-0.10945 0.371838,-0.240834 0.371838,-0.291962 z m 2.231029,-1.301433 c 0,-0.05113 -0.167327,-0.0034 -0.371838,0.106043 -0.204511,0.10945 -0.371838,0.240834 -0.371838,0.291961 0,0.05113 0.167327,0.0034 0.371838,-0.106042 0.204511,-0.109451 0.371838,-0.240834 0.371838,-0.291962 z m 2.231028,-1.301433 c 0,-0.05113 -0.167327,-0.0034 -0.371838,0.106043 -0.204511,0.10945 -0.371838,0.240833 -0.371838,0.291961 0,0.05113 0.167327,0.0034 0.371838,-0.106042 0.204511,-0.109451 0.371838,-0.240834 0.371838,-0.291962 z m 0.929595,-0.557757 c 0,-0.05113 -0.167327,-0.0034 -0.371838,0.106042 -0.204511,0.109451 -0.371838,0.240834 -0.371838,0.291962 0,0.05113 0.167327,0.0034 0.371838,-0.106043 0.204511,-0.10945 0.371838,-0.240833 0.371838,-0.291961 z m 1.99863,-1.128008 C 42.018824,30.469773 42.458058,30.104795 42.458058,30 c 0,-0.185886 -1.054049,-0.907157 -2.835265,-1.940136 -0.485714,-0.28168 -0.883116,-0.472671 -0.883116,-0.424425 0,0.04825 0.794804,0.56202 1.766231,1.141723 0.971427,0.579701 1.766231,1.130087 1.766231,1.223078 0,0.09299 -0.585645,0.517 -1.301433,0.942241 -0.715789,0.425242 -1.301434,0.808408 -1.301434,0.85148 0,0.108117 0.656408,-0.247806 1.812711,-0.982902 z m -2.928225,-3.314425 c 0,-0.04753 -0.188243,-0.17764 -0.418318,-0.289134 -0.401702,-0.194665 -0.403981,-0.191233 -0.05742,0.08642 0.379323,0.303901 0.475742,0.344986 0.475742,0.202717 z m -0.929595,-0.557757 c 0,-0.04753 -0.188243,-0.177641 -0.418318,-0.289134 -0.401702,-0.194665 -0.403981,-0.191233 -0.05742,0.08642 0.379324,0.303901 0.475743,0.344985 0.475743,0.202717 z M 36.22977,26.0957 c -0.0632,-0.102255 -0.214547,-0.184638 -0.336331,-0.183072 -0.133045,0.0017 -0.110114,0.07478 0.05745,0.183072 0.357173,0.230823 0.421534,0.230823 0.278878,0 z"
           id="path928" />
        <g
           aria-label="V"
           id="text932"
           style="font-size:53.3333px;line-height:1.25;font-family:'League Gothic';-inkscape-font-specification:'League Gothic'">
          <path
             d="m 32.954696,39.245952 8.593745,-28.515608 h 8.697912 L 37.043235,48.646988 H 28.892199 L 15.741165,10.730344 h 8.67187 z"
             style="font-style:normal;font-variant:normal;font-weight:bold;font-stretch:normal;font-size:53.3333px;font-family:Roboto;-inkscape-font-specification:'Roboto Bold'"
             id="path42" />
        </g>
      </g>
    </g>
    <g
       aria-label="TuberTV"
       id="text45"
       style="font-size:53.3333px;line-height:1.25;font-family:'League Gothic';-inkscape-font-specification:'League Gothic';fill:#ffffff">
      <path
         d="m 66.782607,18.232925 v -5.328 h 14.976 v 5.328 h -4.896 v 29.952 h -5.184 v -29.952 z"
         style="font-style:normal;font-variant:normal;font-weight:normal;font-stretch:normal;font-size:48px;font-family:'League Gothic';-inkscape-font-specification:'League Gothic'"
         id="path45" />
      <path
         d="m 91.262607,21.928925 h 4.848 v 26.256 h -4.848 v -2.208 c -0.096,0.048 -0.288,0.24 -0.528,0.48 -0.576,0.576 -1.248,1.248 -2.112,1.728 -0.432,0.24 -0.864,0.384 -1.296,0.384 -1.296,0 -2.208,-0.768 -2.784,-1.776 -0.576,-0.96 -0.864,-2.256 -0.864,-3.36 v -21.504 h 4.848 v 20.784 c 0,1.008 0.576,1.152 1.152,1.152 0.528,0 0.816,-0.288 1.152,-0.624 0.144,-0.144 0.288,-0.384 0.432,-0.624 z"
         style="font-style:normal;font-variant:normal;font-weight:normal;font-stretch:normal;font-size:48px;font-family:'League Gothic';-inkscape-font-specification:'League Gothic'"
         id="path47" />
      <path
         d="m 99.950602,12.904925 h 4.847998 v 10.752 c 0.816,-0.768 1.536,-1.344 2.496,-1.776 0.432,-0.24 0.912,-0.336 1.344,-0.336 1.344,0 2.256,0.768 2.88,1.728 0.576,1.008 0.864,2.304 0.864,3.408 v 16.752 c 0,1.104 -0.288,2.4 -0.864,3.36 -0.624,1.008 -1.536,1.776 -2.88,1.776 -0.912,0 -1.872,-0.528 -2.592,-1.056 -0.432,-0.336 -0.816,-0.672 -1.248,-1.056 v 1.728 h -4.847998 z m 4.847998,29.52 c 0,0.912 0.72,1.584 1.44,1.584 0.72,0 1.296,-0.672 1.296,-1.584 v -14.736 c 0,-0.912 -0.576,-1.584 -1.296,-1.584 -0.72,0 -1.44,0.816 -1.44,1.584 z"
         style="font-style:normal;font-variant:normal;font-weight:normal;font-stretch:normal;font-size:48px;font-family:'League Gothic';-inkscape-font-specification:'League Gothic'"
         id="path49" />
      <path
         d="m 128.17456,38.776925 v 3.024 c -0.144,2.544 -0.912,4.32 -2.64,5.712 -0.864,0.72 -2.064,1.056 -3.648,1.056 -3.12,0 -4.704,-1.728 -5.472,-3.456 -0.432,-1.008 -0.72,-2.16 -0.768,-3.456 v -13.2 c 0.144,-2.544 0.96,-4.416 2.688,-5.856 0.816,-0.72 2.016,-1.056 3.6,-1.056 3.12,0 4.704,1.728 5.472,3.408 0.432,1.008 0.72,2.112 0.768,3.36 v 7.632 h -8.016 v 5.712 c 0.048,1.008 0.336,1.728 0.768,2.256 0.24,0.24 0.576,0.384 1.008,0.384 0.912,0 1.344,-0.576 1.536,-1.296 0.144,-0.384 0.192,-0.816 0.192,-1.344 v -2.88 z m -8.016,-6.624 h 3.504 v -3.696 c 0,-1.008 -0.192,-1.728 -0.672,-2.304 -0.24,-0.24 -0.624,-0.384 -1.056,-0.384 -0.912,0 -1.296,0.624 -1.536,1.344 -0.144,0.384 -0.192,0.816 -0.24,1.344 z"
         style="font-style:normal;font-variant:normal;font-weight:normal;font-stretch:normal;font-size:48px;font-family:'League Gothic';-inkscape-font-specification:'League Gothic'"
         id="path51" />
      <path
         d="m 141.08645,26.920925 c -0.432,-0.144 -0.912,-0.192 -1.344,-0.192 -0.768,0 -1.68,0.096 -2.448,0.816 -0.912,0.768 -1.056,1.584 -1.056,2.4 v 18.24 h -4.848 v -26.256 h 4.848 v 2.928 c 0.048,-0.336 0.384,-1.152 1.152,-1.92 0.768,-0.72 1.92,-1.392 3.696,-1.392 z"
         style="font-style:normal;font-variant:normal;font-weight:normal;font-stretch:normal;font-size:48px;font-family:'League Gothic';-inkscape-font-specification:'League Gothic'"
         id="path53" />
      <path
         d="M 141.38504,14.904945 V 8.9849484 h 16.63999 v 5.9199966 h -5.44 v 33.27998 h -5.75999 v -33.27998 z"
         style="font-weight:bold;font-size:53.3333px;fill:#ffffff"
         id="path55" />
      <path
         d="m 170.71836,8.9849484 h 5.59999 l -5.97333,39.1999766 h -5.75999 L 158.6117,8.9849484 h 5.59999 l 2.88,21.5466536 0.21334,1.653333 h 0.32 l 0.21333,-1.653333 z"
         style="font-weight:bold;font-size:53.3333px;fill:#ffffff"
         id="path57" />
    </g>
  </g>
</svg>
