<?xml version="1.0" encoding="UTF-8" standalone="no"?>
<svg
   xmlns:dc="http://purl.org/dc/elements/1.1/"
   xmlns:cc="http://creativecommons.org/ns#"
   xmlns:rdf="http://www.w3.org/1999/02/22-rdf-syntax-ns#"
   xmlns:svg="http://www.w3.org/2000/svg"
   xmlns="http://www.w3.org/2000/svg"
   xmlns:sodipodi="http://sodipodi.sourceforge.net/DTD/sodipodi-0.dtd"
   xmlns:inkscape="http://www.inkscape.org/namespaces/inkscape"
   viewBox="0 0 200 60"
   preserveAspectRatio="xMidYMid meet"
   focusable="false"
   class="style-scope yt-icon"
   style="pointer-events: none; display: block; width: 100%; height: 100%;"
   width="200"
   height="60"
   version="1.1"
   id="svg35"
   sodipodi:docname="logo2.svg"
   inkscape:version="1.0.1 (3bc2e813f5, 2020-09-07)">
  <metadata
     id="metadata41">
    <rdf:RDF>
      <cc:Work
         rdf:about="">
        <dc:format>image/svg+xml</dc:format>
        <dc:type
           rdf:resource="http://purl.org/dc/dcmitype/StillImage" />
        <dc:title />
      </cc:Work>
    </rdf:RDF>
  </metadata>
  <defs
     id="defs39" />
  <sodipodi:namedview
     pagecolor="#494949"
     bordercolor="#666666"
     borderopacity="1"
     objecttolerance="10"
     gridtolerance="10"
     guidetolerance="10"
     inkscape:pageopacity="0"
     inkscape:pageshadow="2"
     inkscape:window-width="1600"
     inkscape:window-height="877"
     id="namedview37"
     showgrid="false"
     inkscape:zoom="2.4208673"
     inkscape:cx="79.692254"
     inkscape:cy="10.821468"
     inkscape:window-x="-8"
     inkscape:window-y="-8"
     inkscape:window-maximized="1"
     inkscape:current-layer="text45"
     inkscape:document-rotation="0" />
  <g
     id="g1029"
     transform="matrix(1.2056607,0,0,1.0727139,-14.384165,-1.1359221)"
     style="fill:#212121;fill-opacity:1">
    <g
       viewBox="0 0 200 60"
       preserveAspectRatio="xMidYMid meet"
       class="style-scope yt-icon"
       fill="#FFFFFF"
       id="g33"
       style="fill:#212121;fill-opacity:1" />
    <g
       id="g172"
       style="fill:#212121;fill-opacity:1">
      <g
         aria-label="TuberTV"
         id="text45"
         style="font-size:53.3333px;line-height:1.25;font-family:'League Gothic';-inkscape-font-specification:'League Gothic';fill:#212121;fill-opacity:1">
        <path
           d="m 66.782607,18.231875 v -5.32828 h 14.897166 v 5.32828 h -4.870227 v 29.953561 h -5.15671 V 18.231875 Z"
           style="font-style:normal;font-variant:normal;font-weight:normal;font-stretch:normal;font-size:48px;font-family:'League Gothic';-inkscape-font-specification:'League Gothic';fill:#ffffff;fill-opacity:1;stroke-width:0.99739"
           id="path45" />
        <path
           d="m 91.133745,21.928064 h 4.822478 V 48.185436 H 91.133745 V 45.97732 c -0.09551,0.048 -0.286485,0.240011 -0.525221,0.480025 -0.572968,0.576029 -1.241431,1.248064 -2.100883,1.728091 -0.429727,0.240014 -0.859451,0.384021 -1.289178,0.384021 -1.289178,0 -2.196376,-0.768042 -2.769345,-1.776092 -0.572968,-0.960054 -0.859452,-2.256118 -0.859452,-3.360176 V 21.928064 h 4.822481 v 20.785085 c 0,1.008056 0.572968,1.152063 1.145935,1.152063 0.525221,0 0.811704,-0.288014 1.145935,-0.624035 0.143243,-0.144007 0.286485,-0.384021 0.429728,-0.624033 z"
           style="font-style:normal;font-variant:normal;font-weight:normal;font-stretch:normal;font-size:48px;font-family:'League Gothic';-inkscape-font-specification:'League Gothic';fill:#ffffff;fill-opacity:1;stroke-width:0.99739"
           id="path47" />
        <path
           d="m 99.776005,12.903595 h 4.822495 v 10.75256 c 0.81167,-0.768039 1.52789,-1.34407 2.48285,-1.776091 0.42971,-0.240014 0.90718,-0.336018 1.33693,-0.336018 1.33693,0 2.2441,0.768039 2.86481,1.728088 0.57299,1.008056 0.85946,2.304123 0.85946,3.408182 v 16.752873 c 0,1.104058 -0.28647,2.400122 -0.85946,3.360176 -0.62071,1.00805 -1.52788,1.776092 -2.86481,1.776092 -0.90722,0 -1.86214,-0.528028 -2.57835,-1.056056 -0.42976,-0.33602 -0.81173,-0.672035 -1.24143,-1.056056 v 1.728091 h -4.822495 z m 4.822495,29.52154 c 0,0.912049 0.71619,1.584084 1.43238,1.584084 0.71622,0 1.28921,-0.672035 1.28921,-1.584084 v -14.73677 c 0,-0.912046 -0.57299,-1.584081 -1.28921,-1.584081 -0.71619,0 -1.43238,0.816043 -1.43238,1.584081 z"
           style="font-style:normal;font-variant:normal;font-weight:normal;font-stretch:normal;font-size:48px;font-family:'League Gothic';-inkscape-font-specification:'League Gothic';fill:#ffffff;fill-opacity:1;stroke-width:0.99739"
           id="path49" />
        <path
           d="m 127.85139,38.776946 v 3.024155 c -0.14323,2.544132 -0.90719,4.320229 -2.62611,5.7123 -0.85945,0.720035 -2.05312,1.056056 -3.62877,1.056056 -3.10361,0 -4.67926,-1.728091 -5.44323,-3.456182 -0.42969,-1.008051 -0.7162,-2.160112 -0.76394,-3.456182 V 28.456407 c 0.14323,-2.544133 0.95496,-4.416231 2.67386,-5.856308 0.81169,-0.720035 2.00536,-1.056053 3.58103,-1.056053 3.10359,0 4.67924,1.728088 5.44322,3.408179 0.4297,1.008049 0.7162,2.11211 0.76394,3.360175 v 7.632399 h -7.97378 v 5.712294 c 0.048,1.008056 0.3342,1.728091 0.76394,2.256119 0.23874,0.240014 0.57298,0.384021 1.00268,0.384021 0.90721,0 1.33693,-0.576028 1.52793,-1.29607 0.14325,-0.384019 0.19097,-0.816042 0.19097,-1.34407 V 38.776946 Z M 119.87761,32.1526 h 3.48552 v -3.696193 c 0,-1.008053 -0.19097,-1.728091 -0.66843,-2.304119 -0.23874,-0.240014 -0.62072,-0.384021 -1.05047,-0.384021 -0.90717,0 -1.28915,0.624033 -1.52789,1.34407 -0.14327,0.384021 -0.19101,0.816042 -0.23873,1.34407 z"
           style="font-style:normal;font-variant:normal;font-weight:normal;font-stretch:normal;font-size:48px;font-family:'League Gothic';-inkscape-font-specification:'League Gothic';fill:#ffffff;fill-opacity:1;stroke-width:0.99739"
           id="path51" />
        <path
           d="m 140.69531,26.920327 c -0.42972,-0.144008 -0.90719,-0.192011 -1.33693,-0.192011 -0.76394,0 -1.67115,0.096 -2.43511,0.816042 -0.90718,0.768042 -1.05043,1.584084 -1.05043,2.400126 v 18.240952 h -4.8225 V 21.928064 h 4.8225 v 2.928154 c 0.048,-0.336015 0.38199,-1.152059 1.14593,-1.920098 0.76395,-0.720039 1.9099,-1.392074 3.67654,-1.392074 z"
           style="font-style:normal;font-variant:normal;font-weight:normal;font-stretch:normal;font-size:48px;font-family:'League Gothic';-inkscape-font-specification:'League Gothic';fill:#ffffff;fill-opacity:1;stroke-width:0.99739"
           id="path53" />
        <path
           d="M 140.49666,14.90372 V 8.9834144 h 16.5524 V 14.90372 h -5.41136 v 33.281716 h -5.72968 V 14.90372 Z"
           style="font-weight:bold;font-size:53.3333px;fill:#1de9b6;fill-opacity:1;stroke:#00bfa5;stroke-width:1.34887;stroke-miterlimit:4;stroke-dasharray:none;stroke-opacity:1"
           id="path55" />
        <path
           d="m 170.83324,8.9834144 h 5.57052 l -5.9419,39.2020216 H 164.7322 L 158.79031,8.9834144 h 5.57051 l 2.86485,21.5477766 0.21221,1.653422 h 0.31832 l 0.21221,-1.653422 z"
           style="font-weight:bold;font-size:53.3333px;fill:#1de9b6;fill-opacity:1;stroke:#00bfa5;stroke-width:1.34887;stroke-linejoin:miter;stroke-miterlimit:4;stroke-dasharray:none;stroke-opacity:1"
           id="path57" />
      </g>
    </g>
  </g>
  <path
     style="fill:#ff0000;stroke-width:0.0232399"
     d=""
     id="path100" />
  <path
     style="fill:#ff0000;stroke-width:0.0232399"
     d=""
     id="path108" />
  <path
     style="fill:#ff0000;stroke-width:0.0232399"
     d=""
     id="path118" />
  <path
     style="fill:#ff0000;stroke-width:0.0232399"
     d=""
     id="path120" />
  <path
     style="fill:#ff0000;stroke-width:0.0232399"
     d=""
     id="path122" />
  <path
     style="fill:#ff0000;stroke-width:0.0232399"
     d=""
     id="path124" />
  <path
     style="fill:#ff0000;stroke-width:0.0232399"
     d=""
     id="path126" />
  <path
     style="fill:#ff0000;stroke-width:0.0232399"
     d=""
     id="path128" />
  <path
     style="fill:#ff0000;stroke-width:0.0232399"
     d=""
     id="path130" />
  <path
     style="fill:#ff0000;stroke-width:0.0232399"
     d=""
     id="path132" />
  <path
     style="fill:#ff0000;stroke-width:0.0232399"
     d=""
     id="path134" />
  <path
     style="fill:#ff0000;stroke-width:0.0232399"
     d=""
     id="path136" />
  <rect
     style="fill:#00bfa5;fill-opacity:1;stroke:#ffffff;stroke-width:1.03953;stroke-opacity:1"
     id="rect1657"
     width="63.212437"
     height="36.755741"
     x="1.791765"
     y="11.961765" />
  <rect
     style="fill:#ffffff;fill-opacity:1;stroke:#ffffff;stroke-width:0.686205;stroke-miterlimit:4;stroke-dasharray:none;stroke-opacity:1"
     id="rect4257"
     width="30.494795"
     height="0.59279513"
     x="18.248102"
     y="50.283367" />
  <g
     aria-label="v"
     transform="scale(1.4799178,0.6757132)"
     id="text4261"
     style="font-size:96.0728px;line-height:1.25;font-family:'League Gothic';-inkscape-font-specification:'League Gothic';fill:#1de9b6;fill-opacity:1;stroke-width:1.50114">
    <path
       d="M 17.819913,71.281403 9.269434,18.729581 h 9.415134 l 3.170403,30.455078 0.384291,3.362548 h 0.768582 l 0.384292,-3.362548 3.170402,-30.455078 h 9.415134 l -8.550479,52.551822 z"
       style="fill:#1de9b6;fill-opacity:1;stroke-width:1.50114"
       id="path41" />
  </g>
</svg>
